<?xml version="1.0" encoding="UTF-8" standalone="no"?>
<svg width="203px" height="60px" viewBox="0 0 203 60" version="1.1" xmlns="http://www.w3.org/2000/svg" xmlns:xlink="http://www.w3.org/1999/xlink" xmlns:sketch="http://www.bohemiancoding.com/sketch/ns">
    <!-- Generator: Sketch 3.3.2 (12043) - http://www.bohemiancoding.com/sketch -->
    <title>Button Black</title>
    <desc>Created with Sketch.</desc>
    <defs></defs>
    <g id="Page-1" stroke="none" stroke-width="1" fill="none" fill-rule="evenodd" sketch:type="MSPage">
        <g id="Desktop-Copy" sketch:type="MSArtboardGroup" transform="translate(-427.000000, -353.000000)">
            <g id="Button-Black" sketch:type="MSLayerGroup" transform="translate(427.183594, 353.000000)">
                <g id="Group" sketch:type="MSShapeGroup">
                    <path d="M195.2955,60 L7.0935,60 C3.183,60 0,56.808 0,52.9005 L0,7.089 C0,3.18 3.183,0 7.0935,0 L195.2955,0 C199.2045,0 202.5,3.18 202.5,7.089 L202.5,52.9005 C202.5,56.808 199.2045,60 195.2955,60 L195.2955,60 L195.2955,60 Z" id="Shape" fill="#A6A6A6"></path>
                    <path d="M201.048,52.902 C201.048,56.076 198.477,58.647 195.297,58.647 L7.0935,58.647 C3.915,58.647 1.335,56.076 1.335,52.902 L1.335,7.0875 C1.335,3.915 3.915,1.335 7.0935,1.335 L195.2955,1.335 C198.477,1.335 201.0465,3.915 201.0465,7.0875 L201.048,52.902 L201.048,52.902 Z" id="Shape" fill="#000000"></path>
                    <g transform="translate(18.000000, 9.000000)" id="Shape" fill="#FFFFFF">
                        <path d="M27.192,20.676 C27.1485,15.8415 31.1505,13.4895 31.3335,13.38 C29.067,10.0755 25.554,9.624 24.3195,9.588 C21.369,9.2775 18.507,11.3535 17.004,11.3535 C15.471,11.3535 13.1565,9.618 10.662,9.669 C7.452,9.7185 4.449,11.577 2.802,14.463 C-0.597,20.3475 1.938,28.995 5.1945,33.7515 C6.8235,36.081 8.727,38.682 11.2185,38.5905 C13.656,38.49 14.5665,37.0365 17.508,37.0365 C20.4225,37.0365 21.2775,38.5905 23.8185,38.532 C26.4345,38.49 28.0815,36.192 29.6535,33.8415 C31.536,31.1715 32.292,28.542 32.322,28.407 C32.2605,28.386 27.2415,26.4705 27.192,20.676 L27.192,20.676 Z"></path>
                        <path d="M22.392,6.459 C23.703,4.8195 24.6,2.589 24.351,0.3255 C22.4535,0.4095 20.0805,1.638 18.714,3.2415 C17.505,4.6545 16.425,6.9705 16.704,9.1485 C18.8355,9.3075 21.024,8.073 22.392,6.459 L22.392,6.459 Z"></path>
                    </g>
                    <g transform="translate(63.000000, 27.000000)" id="Shape" fill="#FFFFFF">
                        <path d="M17.4675,20.256 L14.061,20.256 L12.195,14.3925 L5.709,14.3925 L3.9315,20.256 L0.615,20.256 L7.041,0.294 L11.01,0.294 L17.4675,20.256 L17.4675,20.256 Z M11.6325,11.9325 L9.945,6.72 C9.7665,6.1875 9.432,4.9335 8.9385,2.9595 L8.8785,2.9595 C8.682,3.8085 8.3655,5.0625 7.9305,6.72 L6.273,11.9325 L11.6325,11.9325 L11.6325,11.9325 Z"></path>
                        <path d="M33.993,12.882 C33.993,15.33 33.3315,17.265 32.0085,18.6855 C30.8235,19.95 29.352,20.5815 27.5955,20.5815 C25.6995,20.5815 24.3375,19.9005 23.508,18.5385 L23.448,18.5385 L23.448,26.121 L20.25,26.121 L20.25,10.6005 C20.25,9.0615 20.2095,7.482 20.1315,5.862 L22.944,5.862 L23.1225,8.1435 L23.1825,8.1435 C24.249,6.4245 25.8675,5.5665 28.0395,5.5665 C29.7375,5.5665 31.155,6.237 32.289,7.5795 C33.426,8.9235 33.993,10.6905 33.993,12.882 L33.993,12.882 Z M30.735,12.999 C30.735,11.598 30.42,10.443 29.787,9.534 C29.0955,8.586 28.167,8.112 27.003,8.112 C26.214,8.112 25.497,8.376 24.8565,8.8965 C24.2145,9.4215 23.7945,10.107 23.598,10.956 C23.499,11.352 23.4495,11.676 23.4495,11.931 L23.4495,14.331 C23.4495,15.378 23.7705,16.2615 24.4125,16.983 C25.0545,17.7045 25.8885,18.0645 26.9145,18.0645 C28.119,18.0645 29.0565,17.5995 29.727,16.6725 C30.399,15.744 30.735,14.52 30.735,12.999 L30.735,12.999 Z"></path>
                        <path d="M50.5485,12.882 C50.5485,15.33 49.887,17.265 48.5625,18.6855 C47.379,19.95 45.9075,20.5815 44.151,20.5815 C42.255,20.5815 40.893,19.9005 40.065,18.5385 L40.005,18.5385 L40.005,26.121 L36.807,26.121 L36.807,10.6005 C36.807,9.0615 36.7665,7.482 36.6885,5.862 L39.501,5.862 L39.6795,8.1435 L39.7395,8.1435 C40.8045,6.4245 42.423,5.5665 44.5965,5.5665 C46.293,5.5665 47.7105,6.237 48.8475,7.5795 C49.98,8.9235 50.5485,10.6905 50.5485,12.882 L50.5485,12.882 Z M47.2905,12.999 C47.2905,11.598 46.974,10.443 46.341,9.534 C45.6495,8.586 44.724,8.112 43.5585,8.112 C42.768,8.112 42.0525,8.376 41.4105,8.8965 C40.7685,9.4215 40.35,10.107 40.1535,10.956 C40.056,11.352 40.005,11.676 40.005,11.931 L40.005,14.331 C40.005,15.378 40.326,16.2615 40.965,16.983 C41.607,17.703 42.441,18.0645 43.47,18.0645 C44.6745,18.0645 45.612,17.5995 46.2825,16.6725 C46.9545,15.744 47.2905,14.52 47.2905,12.999 L47.2905,12.999 Z"></path>
                        <path d="M69.0585,14.658 C69.0585,16.356 68.469,17.7375 67.2855,18.804 C65.985,19.9695 64.1745,20.5515 61.848,20.5515 C59.7,20.5515 57.978,20.1375 56.6745,19.308 L57.4155,16.6425 C58.8195,17.4915 60.36,17.9175 62.0385,17.9175 C63.243,17.9175 64.1805,17.6445 64.854,17.1015 C65.5245,16.5585 65.859,15.8295 65.859,14.9205 C65.859,14.1105 65.583,13.428 65.0295,12.8745 C64.479,12.321 63.5595,11.8065 62.2755,11.331 C58.7805,10.0275 57.0345,8.118 57.0345,5.607 C57.0345,3.966 57.6465,2.6205 58.872,1.5735 C60.093,0.525 61.722,0.0015 63.759,0.0015 C65.5755,0.0015 67.0845,0.318 68.289,0.9495 L67.4895,3.5565 C66.3645,2.9445 65.0925,2.6385 63.669,2.6385 C62.544,2.6385 61.665,2.916 61.035,3.468 C60.5025,3.9615 60.2355,4.563 60.2355,5.2755 C60.2355,6.0645 60.54,6.717 61.152,7.23 C61.6845,7.704 62.652,8.217 64.056,8.7705 C65.7735,9.462 67.035,10.2705 67.8465,11.1975 C68.655,12.1215 69.0585,13.278 69.0585,14.658 L69.0585,14.658 Z"></path>
                        <path d="M79.632,8.262 L76.107,8.262 L76.107,15.2505 C76.107,17.028 76.728,17.916 77.973,17.916 C78.5445,17.916 79.0185,17.8665 79.3935,17.7675 L79.482,20.196 C78.852,20.4315 78.0225,20.55 76.995,20.55 C75.732,20.55 74.745,20.1645 74.0325,19.395 C73.323,18.624 72.966,17.331 72.966,15.5145 L72.966,8.259 L70.866,8.259 L70.866,5.859 L72.966,5.859 L72.966,3.2235 L76.107,2.2755 L76.107,5.859 L79.632,5.859 L79.632,8.262 L79.632,8.262 Z"></path>
                        <path d="M95.5365,12.9405 C95.5365,15.153 94.9035,16.9695 93.6405,18.39 C92.316,19.8525 90.558,20.5815 88.3665,20.5815 C86.2545,20.5815 84.573,19.881 83.319,18.48 C82.065,17.079 81.438,15.3105 81.438,13.179 C81.438,10.9485 82.083,9.1215 83.3775,7.701 C84.669,6.279 86.412,5.568 88.6035,5.568 C90.7155,5.568 92.415,6.2685 93.6975,7.671 C94.9245,9.0315 95.5365,10.788 95.5365,12.9405 L95.5365,12.9405 Z M92.2185,13.044 C92.2185,11.7165 91.935,10.578 91.3605,9.6285 C90.69,8.4795 89.7315,7.9065 88.4895,7.9065 C87.204,7.9065 86.2275,8.481 85.557,9.6285 C84.9825,10.5795 84.699,11.736 84.699,13.104 C84.699,14.4315 84.9825,15.57 85.557,16.518 C86.2485,17.667 87.2145,18.24 88.461,18.24 C89.682,18.24 90.6405,17.655 91.332,16.488 C91.9215,15.5205 92.2185,14.37 92.2185,13.044 L92.2185,13.044 Z"></path>
                        <path d="M105.9315,8.6745 C105.615,8.616 105.2775,8.586 104.9235,8.586 C103.7985,8.586 102.9285,9.0105 102.3165,9.861 C101.784,10.611 101.517,11.559 101.517,12.7035 L101.517,20.256 L98.3205,20.256 L98.3505,10.395 C98.3505,8.736 98.31,7.2255 98.2305,5.8635 L101.016,5.8635 L101.133,8.6175 L101.2215,8.6175 C101.559,7.671 102.0915,6.909 102.8205,6.3375 C103.533,5.823 104.3025,5.5665 105.132,5.5665 C105.4275,5.5665 105.6945,5.5875 105.9315,5.625 L105.9315,8.6745 L105.9315,8.6745 Z"></path>
                        <path d="M120.234,12.378 C120.234,12.951 120.1965,13.434 120.117,13.8285 L110.523,13.8285 C110.5605,15.2505 111.024,16.338 111.915,17.088 C112.7235,17.7585 113.769,18.0945 115.053,18.0945 C116.4735,18.0945 117.7695,17.868 118.935,17.4135 L119.436,19.6335 C118.074,20.2275 116.466,20.523 114.6105,20.523 C112.3785,20.523 110.6265,19.866 109.3515,18.5535 C108.0795,17.241 107.442,15.4785 107.442,13.2675 C107.442,11.097 108.0345,9.2895 109.221,7.848 C110.463,6.309 112.1415,5.5395 114.2535,5.5395 C116.328,5.5395 117.8985,6.309 118.965,7.848 C119.8095,9.0705 120.234,10.5825 120.234,12.378 L120.234,12.378 Z M117.1845,11.5485 C117.2055,10.6005 116.997,9.7815 116.5635,9.09 C116.01,8.2005 115.1595,7.7565 114.015,7.7565 C112.9695,7.7565 112.119,8.19 111.4695,9.06 C110.937,9.7515 110.6205,10.581 110.523,11.547 L117.1845,11.547 L117.1845,11.5485 Z"></path>
                    </g>
                    <g transform="translate(64.500000, 9.000000)" id="Shape" fill="#FFFFFF">
                        <path d="M9.075,6.0135 C9.075,7.779 8.5455,9.108 7.488,10.0005 C6.5085,10.824 5.1165,11.2365 3.3135,11.2365 C2.4195,11.2365 1.6545,11.1975 1.014,11.1195 L1.014,1.473 C1.8495,1.338 2.7495,1.269 3.7215,1.269 C5.439,1.269 6.7335,1.6425 7.6065,2.3895 C8.5845,3.234 9.075,4.4415 9.075,6.0135 L9.075,6.0135 Z M7.4175,6.057 C7.4175,4.9125 7.1145,4.035 6.5085,3.423 C5.9025,2.8125 5.0175,2.5065 3.852,2.5065 C3.357,2.5065 2.9355,2.5395 2.586,2.6085 L2.586,9.942 C2.7795,9.972 3.1335,9.9855 3.648,9.9855 C4.851,9.9855 5.7795,9.651 6.4335,8.982 C7.0875,8.313 7.4175,7.338 7.4175,6.057 L7.4175,6.057 Z"></path>
                        <path d="M17.8635,7.5555 C17.8635,8.643 17.553,9.534 16.932,10.233 C16.281,10.9515 15.4185,11.31 14.3415,11.31 C13.3035,11.31 12.477,10.9665 11.8605,10.2765 C11.2455,9.588 10.938,8.7195 10.938,7.6725 C10.938,6.5775 11.2545,5.679 11.8905,4.9815 C12.5265,4.284 13.3815,3.9345 14.4585,3.9345 C15.4965,3.9345 16.3305,4.278 16.962,4.9665 C17.562,5.6355 17.8635,6.4995 17.8635,7.5555 L17.8635,7.5555 Z M16.233,7.6065 C16.233,6.954 16.092,6.3945 15.8115,5.928 C15.4815,5.364 15.012,5.082 14.4015,5.082 C13.77,5.082 13.29,5.364 12.96,5.928 C12.678,6.3945 12.5385,6.963 12.5385,7.635 C12.5385,8.2875 12.6795,8.847 12.96,9.3135 C13.3005,9.8775 13.7745,10.1595 14.3865,10.1595 C14.9865,10.1595 15.4575,9.873 15.7965,9.2985 C16.0875,8.823 16.233,8.259 16.233,7.6065 L16.233,7.6065 Z"></path>
                        <path d="M29.6475,4.0785 L27.435,11.1495 L25.995,11.1495 L25.0785,8.079 C24.846,7.3125 24.657,6.5505 24.51,5.7945 L24.4815,5.7945 C24.345,6.5715 24.156,7.332 23.913,8.079 L22.9395,11.1495 L21.483,11.1495 L19.4025,4.0785 L21.018,4.0785 L21.8175,7.44 C22.011,8.235 22.17,8.9925 22.2975,9.7095 L22.326,9.7095 C22.443,9.1185 22.6365,8.3655 22.9095,7.455 L23.913,4.08 L25.194,4.08 L26.1555,7.383 C26.388,8.1885 26.577,8.964 26.7225,9.711 L26.766,9.711 C26.8725,8.9835 27.033,8.208 27.246,7.383 L28.104,4.08 L29.6475,4.08 L29.6475,4.0785 Z"></path>
                        <path d="M37.797,11.1495 L36.225,11.1495 L36.225,7.0995 C36.225,5.8515 35.751,5.2275 34.8,5.2275 C34.3335,5.2275 33.957,5.3985 33.6645,5.742 C33.375,6.0855 33.228,6.4905 33.228,6.954 L33.228,11.148 L31.656,11.148 L31.656,6.099 C31.656,5.478 31.6365,4.8045 31.599,4.0755 L32.9805,4.0755 L33.054,5.181 L33.0975,5.181 C33.2805,4.8375 33.5535,4.554 33.912,4.3275 C34.338,4.0635 34.815,3.93 35.337,3.93 C35.997,3.93 36.546,4.143 36.9825,4.5705 C37.5255,5.094 37.797,5.8755 37.797,6.9135 L37.797,11.1495 L37.797,11.1495 Z"></path>
                        <path d="M42.132,11.1495 L40.5615,11.1495 L40.5615,0.834 L42.132,0.834 L42.132,11.1495 L42.132,11.1495 Z"></path>
                        <path d="M51.387,7.5555 C51.387,8.643 51.0765,9.534 50.4555,10.233 C49.8045,10.9515 48.9405,11.31 47.865,11.31 C46.8255,11.31 45.999,10.9665 45.384,10.2765 C44.769,9.588 44.4615,8.7195 44.4615,7.6725 C44.4615,6.5775 44.778,5.679 45.414,4.9815 C46.05,4.284 46.905,3.9345 47.9805,3.9345 C49.02,3.9345 49.8525,4.278 50.4855,4.9665 C51.0855,5.6355 51.387,6.4995 51.387,7.5555 L51.387,7.5555 Z M49.755,7.6065 C49.755,6.954 49.614,6.3945 49.3335,5.928 C49.005,5.364 48.534,5.082 47.925,5.082 C47.292,5.082 46.812,5.364 46.4835,5.928 C46.2015,6.3945 46.062,6.963 46.062,7.635 C46.062,8.2875 46.203,8.847 46.4835,9.3135 C46.824,9.8775 47.298,10.1595 47.91,10.1595 C48.51,10.1595 48.9795,9.873 49.3185,9.2985 C49.611,8.823 49.755,8.259 49.755,7.6065 L49.755,7.6065 Z"></path>
                        <path d="M58.995,11.1495 L57.5835,11.1495 L57.4665,10.335 L57.423,10.335 C56.94,10.9845 56.2515,11.31 55.3575,11.31 C54.69,11.31 54.15,11.0955 53.7435,10.6695 C53.3745,10.2825 53.19,9.801 53.19,9.2295 C53.19,8.3655 53.55,7.707 54.2745,7.251 C54.9975,6.795 56.0145,6.5715 57.324,6.582 L57.324,6.45 C57.324,5.5185 56.835,5.0535 55.8555,5.0535 C55.158,5.0535 54.543,5.229 54.012,5.577 L53.6925,4.545 C54.3495,4.1385 55.161,3.9345 56.118,3.9345 C57.966,3.9345 58.893,4.9095 58.893,6.8595 L58.893,9.4635 C58.893,10.17 58.9275,10.7325 58.995,11.1495 L58.995,11.1495 Z M57.363,8.7195 L57.363,7.629 C55.629,7.599 54.762,8.0745 54.762,9.054 C54.762,9.423 54.861,9.699 55.0635,9.8835 C55.266,10.068 55.524,10.1595 55.8315,10.1595 C56.1765,10.1595 56.499,10.05 56.793,9.8325 C57.0885,9.6135 57.27,9.336 57.3375,8.9955 C57.354,8.919 57.363,8.826 57.363,8.7195 L57.363,8.7195 Z"></path>
                        <path d="M67.9275,11.1495 L66.5325,11.1495 L66.459,10.014 L66.4155,10.014 C65.97,10.878 65.211,11.31 64.1445,11.31 C63.2925,11.31 62.583,10.9755 62.0205,10.3065 C61.458,9.6375 61.1775,8.769 61.1775,7.7025 C61.1775,6.558 61.482,5.631 62.094,4.923 C62.6865,4.263 63.4125,3.933 64.2765,3.933 C65.226,3.933 65.8905,4.2525 66.2685,4.893 L66.2985,4.893 L66.2985,0.834 L67.872,0.834 L67.872,9.2445 C67.872,9.933 67.89,10.5675 67.9275,11.1495 L67.9275,11.1495 Z M66.2985,8.1675 L66.2985,6.9885 C66.2985,6.7845 66.2835,6.6195 66.255,6.4935 C66.1665,6.1155 65.976,5.7975 65.6865,5.541 C65.394,5.2845 65.0415,5.1555 64.635,5.1555 C64.0485,5.1555 63.5895,5.388 63.252,5.8545 C62.9175,6.321 62.748,6.9165 62.748,7.644 C62.748,8.343 62.9085,8.91 63.231,9.3465 C63.5715,9.8115 64.0305,10.044 64.605,10.044 C65.121,10.044 65.5335,9.8505 65.847,9.462 C66.15,9.1035 66.2985,8.6715 66.2985,8.1675 L66.2985,8.1675 Z"></path>
                        <path d="M81.372,7.5555 C81.372,8.643 81.0615,9.534 80.4405,10.233 C79.7895,10.9515 78.9285,11.31 77.85,11.31 C76.8135,11.31 75.987,10.9665 75.369,10.2765 C74.754,9.588 74.4465,8.7195 74.4465,7.6725 C74.4465,6.5775 74.763,5.679 75.399,4.9815 C76.035,4.284 76.89,3.9345 77.9685,3.9345 C79.005,3.9345 79.8405,4.278 80.4705,4.9665 C81.0705,5.6355 81.372,6.4995 81.372,7.5555 L81.372,7.5555 Z M79.743,7.6065 C79.743,6.954 79.602,6.3945 79.3215,5.928 C78.99,5.364 78.522,5.082 77.91,5.082 C77.28,5.082 76.8,5.364 76.4685,5.928 C76.1865,6.3945 76.047,6.963 76.047,7.635 C76.047,8.2875 76.188,8.847 76.4685,9.3135 C76.809,9.8775 77.283,10.1595 77.895,10.1595 C78.495,10.1595 78.9675,9.873 79.3065,9.2985 C79.596,8.823 79.743,8.259 79.743,7.6065 L79.743,7.6065 Z"></path>
                        <path d="M89.8245,11.1495 L88.254,11.1495 L88.254,7.0995 C88.254,5.8515 87.78,5.2275 86.8275,5.2275 C86.361,5.2275 85.9845,5.3985 85.6935,5.742 C85.4025,6.0855 85.257,6.4905 85.257,6.954 L85.257,11.148 L83.6835,11.148 L83.6835,6.099 C83.6835,5.478 83.6655,4.8045 83.628,4.0755 L85.008,4.0755 L85.0815,5.181 L85.125,5.181 C85.3095,4.8375 85.5825,4.554 85.9395,4.3275 C86.367,4.0635 86.8425,3.93 87.366,3.93 C88.0245,3.93 88.5735,4.143 89.01,4.5705 C89.5545,5.094 89.8245,5.8755 89.8245,6.9135 L89.8245,11.1495 L89.8245,11.1495 Z"></path>
                        <path d="M100.404,5.256 L98.673,5.256 L98.673,8.691 C98.673,9.564 98.9805,10.0005 99.5895,10.0005 C99.8715,10.0005 100.1055,9.9765 100.29,9.927 L100.3305,11.1195 C100.02,11.2365 99.612,11.295 99.1095,11.295 C98.4885,11.295 98.0055,11.106 97.656,10.728 C97.305,10.35 97.131,9.714 97.131,8.8215 L97.131,5.256 L96.0975,5.256 L96.0975,4.0785 L97.131,4.0785 L97.131,2.7825 L98.6715,2.3175 L98.6715,4.077 L100.4025,4.077 L100.4025,5.256 L100.404,5.256 Z"></path>
                        <path d="M108.726,11.1495 L107.1525,11.1495 L107.1525,7.1295 C107.1525,5.862 106.6785,5.2275 105.729,5.2275 C105,5.2275 104.502,5.595 104.229,6.33 C104.1825,6.4845 104.1555,6.6735 104.1555,6.8955 L104.1555,11.148 L102.585,11.148 L102.585,0.834 L104.1555,0.834 L104.1555,5.0955 L104.1855,5.0955 C104.6805,4.32 105.39,3.933 106.3095,3.933 C106.9605,3.933 107.499,4.146 107.9265,4.5735 C108.459,5.106 108.726,5.898 108.726,6.945 L108.726,11.1495 L108.726,11.1495 Z"></path>
                        <path d="M117.3105,7.2795 C117.3105,7.5615 117.2895,7.7985 117.252,7.992 L112.5375,7.992 C112.5585,8.691 112.7835,9.2235 113.22,9.5925 C113.619,9.9225 114.1335,10.0875 114.7635,10.0875 C115.461,10.0875 116.097,9.9765 116.67,9.753 L116.916,10.845 C116.2455,11.136 115.4565,11.2815 114.543,11.2815 C113.448,11.2815 112.5855,10.959 111.9615,10.314 C111.3345,9.669 111.024,8.8035 111.024,7.7175 C111.024,6.651 111.3135,5.763 111.897,5.055 C112.506,4.299 113.3295,3.921 114.369,3.921 C115.386,3.921 116.1585,4.299 116.6805,5.055 C117.102,5.655 117.3105,6.3975 117.3105,7.2795 L117.3105,7.2795 Z M115.8105,6.873 C115.8225,6.4065 115.719,6.0045 115.506,5.6655 C115.233,5.229 114.8175,5.01 114.255,5.01 C113.742,5.01 113.3235,5.223 113.004,5.6505 C112.743,5.991 112.5885,6.3975 112.5375,6.873 L115.8105,6.873 L115.8105,6.873 Z"></path>
                    </g>
                </g>
            </g>
        </g>
    </g>
</svg>